<?xml version="1.0" encoding="utf-8"?>
<!-- Generator: Adobe Illustrator 21.1.0, SVG Export Plug-In . SVG Version: 6.00 Build 0)  -->
<svg version="1.1" id="Layer_1" xmlns="http://www.w3.org/2000/svg" xmlns:xlink="http://www.w3.org/1999/xlink" x="0px" y="0px"
	 viewBox="0 0 1591.2 900" style="enable-background:new 0 0 1591.2 900;" xml:space="preserve">
<style type="text/css">
	.st0{display:none;}
	.st1{fill:#FAEBD8;}
</style>
<rect x="-0.4" y="-7" class="st0" width="1478" height="940"/>
<g>
	<path class="st1" d="M155.1,635.7c10.7,14.9,23.6,30.2,38.5,45.9c14.9,15.6,31.7,28.8,50.4,39.5H127.8H10.9
		c15.9-12.6,30.5-27,43.8-43c13.3-16.1,24.9-31.2,34.7-45.2c11.7-16.3,22.2-33.1,31.5-50.4C131.1,600.7,142.5,618.4,155.1,635.7z
		 M435.1,721.1h131.6L298.6,180.7l-62.3,142.1L435.1,721.1z"/>
	<path class="st1" d="M665.4,393.1c18.7-10,34.8-19.2,48.3-27.6c15.9-9.3,30.3-18.7,43.4-28v383.6H634.6V508.3
		c0-17.7-1.5-32.2-4.6-43.4c-3-11.2-6.4-20.1-10.1-26.6c-4.7-7.5-9.6-12.8-14.7-16.1C626.7,412.9,646.8,403.2,665.4,393.1z
		 M761.7,199.9c-3.5-8.2-8.3-15.3-14.3-21.4c-6.1-6.1-13.2-10.9-21.4-14.4c-8.2-3.5-16.7-5.2-25.5-5.2c-9.3,0-18.1,1.8-26.2,5.2
		c-8.2,3.5-15.2,8.3-21,14.4c-5.8,6.1-10.5,13.2-14,21.4c-3.5,8.2-5.2,16.7-5.2,25.5c0,9.3,1.8,18,5.2,25.9c3.5,7.9,8.2,14.9,14,21
		c5.8,6.1,12.8,10.9,21,14.4c8.2,3.5,16.9,5.2,26.2,5.2c8.9,0,17.4-1.8,25.5-5.2c8.2-3.5,15.3-8.3,21.4-14.4
		c6.1-6.1,10.8-13.1,14.3-21c3.5-7.9,5.2-16.6,5.2-25.9C766.9,216.6,765.2,208.1,761.7,199.9z"/>
	<path class="st1" d="M820.8,321.4c17.7-9.3,35.9-20.1,54.6-32.2c15.9-10.7,33.4-23.7,52.5-38.9c19.1-15.2,38-32.5,56.7-52.1v233.1
		v114.8c0,16.3,2.2,31.2,6.6,44.5c4.4,13.3,10.4,25.4,17.9,36.4c7.5,11,15.9,20.7,25.2,29.1c9.3,8.4,18.9,15.6,28.7,21.7
		c22.9,14.9,49,26.4,78.4,34.3c-18.7,3.3-37.3,5.8-56,7.7c-16.3,1.4-34,1.9-52.8,1.4c-18.9-0.5-36.8-2.8-53.6-7
		c-16.3-4.2-31.6-11.9-45.8-23.1c-14.2-11.2-26.6-24.9-37.1-41c-10.5-16.1-18.8-34-24.9-53.5c-6.1-19.6-9.1-39.7-9.1-60.2V425
		c0-23.8-2.2-42.5-6.7-56c-4.4-13.5-9.2-23.8-14.3-30.8C835.1,329.8,828.3,324.2,820.8,321.4z M1121.1,345.9v151.9h-2.8
		c-3.3-4.7-8.5-12.5-15.8-23.5c-7.2-11-16.8-23.5-28.7-37.5c-11.9-14-26.4-28.7-43.4-44.1c-17-15.4-37-29.9-59.8-43.4v-3.5H1121.1z"
		/>
	<path class="st1" d="M1485.1,678.4c16.3,0,31-1.6,44.1-4.9c-19.1,17.7-41.4,31.8-66.9,42.3c-25.4,10.5-52.8,15.8-82.2,15.8
		c-28.9,0-56.1-5-81.5-15c-25.4-10-47.6-23.8-66.5-41.3s-33.8-38-44.8-61.6c-11-23.6-16.5-48.6-16.5-75.2c0-25.7,4.7-49.7,14-72.1
		c9.3-22.4,22-42.1,38.2-59.2c16.1-17,35.1-30.8,57-41.3c21.9-10.5,45.3-16.5,70-17.9c-17.3,19.6-29.9,41.5-37.8,65.8
		c-7.9,24.3-11.9,51.6-11.9,81.9c0,27.1,4.8,51.8,14.3,74.2c9.6,22.4,22.8,41.7,39.6,57.8c16.8,16.1,36.4,28.6,58.8,37.5
		C1435.4,674,1459.5,678.4,1485.1,678.4z M1449.4,546.8c1.4-7.5,2.6-14.9,3.5-22.4c0.9-7.5,1.4-15.2,1.4-23.1
		c0-31.3-4-59.6-11.9-85.1c-7.9-25.4-20.5-48.2-37.8-68.2c24.7,1.4,48.1,7.6,70,18.6c21.9,11,41,25.3,57,43
		c16.1,17.7,28.8,38.1,38.2,61.2c9.3,23.1,14,48,14,74.5v1.4H1449.4z"/>
</g>
</svg>
